<svg width="158" height="117" viewBox="0 0 158 117" fill="none" xmlns="http://www.w3.org/2000/svg">
<g id="Logo">
<g id="Logo_2">
<path d="M29.5112 44.4472C30.761 35.5673 32.0551 26.5753 34.8603 18.0285C35.3233 16.4843 35.8061 14.6331 36.0536 12.9369C36.211 11.6169 36.5563 8.95058 35.3813 8.45938C34.6464 8.28132 33.8779 8.87076 33.2545 9.31437C26.842 14.3 20.9046 19.9994 16.1988 26.6429C8.54714 37.5045 3.37526 50.3109 2.48603 63.6269C1.68848 81.178 6.69229 98.9823 16.0964 113.741C16.2828 114.007 16.4814 114.268 16.7137 114.495C17.198 115.063 18.3241 115.454 17.9589 116.322C16.7351 118.136 14.8726 115.855 13.9818 114.784C11.2408 111.327 9.13384 105.96 7.24996 101.778C5.89779 98.9547 4.82674 95.9876 3.87335 92.9867C-4.18012 68.2733 0.348521 41.7441 17.2393 21.823C21.9207 16.2694 27.0269 10.8064 33.1796 6.89215C35.2285 6.02489 38.3087 5.96502 38.295 8.91374C38.4172 10.9215 38.24 12.9216 37.9191 14.9002C36.023 25.0419 32.2568 35.1697 32.1835 45.5555C32.1407 46.6162 32.5013 47.0229 33.4165 46.4243C34.8389 45.5417 36.0322 44.3628 37.1124 43.0826C38.4081 41.5538 39.5265 39.8438 40.7442 38.2735C43.91 34.3301 47.3171 30.5755 51.0192 27.1141C54.3408 23.7955 59.1521 20.3755 63.5784 19.0969C65.9084 18.4552 67.4607 19.3363 67.1399 21.6895C66.955 22.9835 66.4111 24.1946 65.942 25.4026C65.1827 27.2461 64.295 29.0421 63.4118 30.8334C62.1025 33.3984 60.9596 36.0201 59.8809 38.6818C56.8771 45.4818 55.1766 52.9372 53.1552 59.9276C53.172 53.5574 55.1292 46.8418 56.8954 40.6174C59.1582 34.3147 62.8099 28.6046 64.7182 22.1622C65.6089 18.7193 56.9321 24.5891 56.2048 25.2721C54.8129 26.408 53.4989 27.6452 52.185 28.8701C47.7602 32.8903 44.0536 37.5413 40.2247 42.1079C38.1239 44.3781 32.1575 53.1337 29.9619 47.4358C29.6289 46.5179 29.3309 45.3958 29.5051 44.4748L29.5081 44.4487L29.5112 44.4472Z" fill="#1B1B1B"/>
<path d="M97.7816 53.7676C94.2766 52.8681 90.8878 52.0914 87.3492 51.2119C86.4905 50.9832 85.8672 51.4989 85.2866 52.1206C84.8695 52.512 84.518 52.8804 84.1025 53.3102C82.9061 54.5366 81.0268 56.4984 79.4928 56.6642C78.6128 56.7593 77.8397 56.2528 77.3568 54.7239C77.253 54.1053 77.4226 53.4315 77.0009 52.9234C76.9902 52.9142 76.9688 52.8973 76.9581 52.8881C76.9352 52.885 76.9138 52.928 76.8909 52.9495C76.5975 53.2841 76.3347 53.6448 76.0887 54.0163C75.4119 55.0156 74.7381 56.4354 74.0276 57.2091C73.1292 58.2268 72.0337 58.0733 70.3485 55.516C70.2996 55.516 70.0368 55.6111 69.9833 55.7201C69.3828 56.7071 68.8038 57.0893 67.9619 56.153C67.062 55.1245 66.4294 56.2482 65.9023 56.4999C63.9497 57.7125 63.9146 56.9834 63.4333 56.9143C63.3049 56.8959 63.146 56.9251 62.9107 57.0494C62.6082 57.2091 62.1728 57.5345 61.5204 58.1162C60.3943 59.0787 59.6793 60.4448 57.8855 60.1301C57.6579 60.081 57.3385 59.9183 57.2194 59.7126C57.1796 57.6066 58.3133 54.4185 59.5112 52.6747C60.8573 50.8588 63.2866 48.9109 64.3042 51.7952C64.6097 52.3677 64.9734 52.931 65.3859 53.4361C65.5708 53.6325 65.777 53.9303 66.0123 54.0393C66.486 54.0255 67.0421 53.6955 67.5142 53.5174C68.8236 53.0078 70.0627 52.3232 71.421 51.9625C72.133 51.7568 72.9443 52.0438 73.3187 52.6778C73.4944 52.9648 73.5815 53.3071 73.5509 53.6648C73.5005 54.0378 73.3431 54.3739 73.3538 54.7684C74.4615 54.2987 75.2606 51.6631 76.0352 50.5687C76.2339 50.2064 76.5196 49.7736 76.6113 49.4144C76.7518 48.8495 76.3041 48.7006 75.7404 48.6745C72.7106 48.0513 63.0482 49.5326 62.7228 45.4434C64.3133 40.5114 68.1468 37.2987 72.4126 34.5173C76.5394 31.8142 81.2942 29.4964 84.9076 26.2084C85.2575 24.9635 85.5112 23.6803 85.7938 22.4155C86.0719 21.1552 86.3652 19.9011 86.764 18.6808C87.0604 17.7829 87.4088 16.8941 87.858 16.0514C87.9008 15.9885 87.9558 15.9332 88.0184 15.8841C88.408 15.5602 89.2774 15.5755 89.3706 16.1788C88.9795 18.9617 88.1024 21.6173 87.6792 24.3941C87.4989 25.0219 88.1009 25.1216 88.5562 24.9436C108.15 16.5994 128.202 6.97039 149.103 1.86194C152.052 1.14357 155.015 0.514222 158 0C158 0 157.954 0.0153499 157.93 0.0230248L157.872 0.0414447C156.437 0.505012 155.005 0.973184 153.575 1.4475C131.461 8.78935 109.795 17.4897 88.4585 26.8485C87.4592 27.3351 86.7533 27.9829 86.3057 28.956C86.0001 29.6284 85.8947 30.4158 85.6334 31.1188C83.9848 35.2004 83.1322 39.5367 81.8442 43.7457C81.693 44.6866 81.1185 45.6122 80.9107 46.5332C80.7304 47.3145 80.8664 47.9822 81.884 48.2509C83.2132 48.6945 84.0933 48.8035 84.7426 48.6945C86.4783 48.475 86.5685 46.2324 88.4768 45.2776C90.8022 44.2937 88.8313 46.0574 91.9802 47.841C92.0704 47.8994 92.1498 47.9116 92.2766 47.8901C93.56 47.5647 94.8083 46.4918 96.0306 47.927C96.0383 47.9347 96.052 47.9515 96.0597 47.9592C96.3897 47.7888 96.8832 47.4465 97.2942 47.2562C97.8946 46.8909 98.8435 46.6253 99.5478 46.8157C100.142 46.9415 100.399 47.5217 100.275 48.0912C100.131 51.0461 105.853 51.789 97.7984 53.7707H97.777L97.7816 53.7676ZM74.9077 47.2286C78.1177 47.5294 78.7976 45.8854 79.6609 43.1332C80.9947 39.2543 82.6724 35.2265 83.2774 31.1787C83.3186 30.8287 83.4424 30.2577 83.1109 30.0812C82.8893 29.9768 82.3958 30.227 82.1162 30.3836C75.7358 33.9831 68.926 38.2427 64.6892 44.395C63.6472 46.5025 66.5807 46.7328 67.9665 46.8172C70.269 46.9768 72.5776 47.0858 74.8756 47.227L74.9077 47.2286ZM79.1475 54.0209C79.1827 54.3402 79.3156 54.5643 79.5937 54.6595C80.8526 55.0601 83.1093 52.6379 83.6456 51.1904C83.7923 50.8358 83.7526 50.4336 83.3996 50.2448C82.926 49.9777 82.2018 49.8304 81.6395 49.7429C79.8549 49.4957 79.9023 50.6086 79.3614 52.6194C79.2468 53.0492 79.1093 53.565 79.146 53.9902L79.1491 54.0194L79.1475 54.0209ZM97.7846 51.8995C98.903 51.8351 100.258 51.9195 99.2514 50.4091C98.8175 49.6431 98.0841 49.0782 97.2835 49.551C95.5493 50.5794 95.4867 52.0039 97.7495 51.9011L97.7846 51.8995ZM62.9917 53.3624C63.0299 52.9863 62.9168 52.4445 62.4814 52.3938C62.0521 52.3554 61.4088 53.1813 61.0773 53.6678C60.6647 54.2803 60.3424 54.9511 60.0735 55.6403C59.8809 56.1422 59.6609 56.7409 59.7297 56.9573C59.8443 57.2428 60.2278 56.8898 60.3928 56.7731C61.0406 56.2359 61.5876 55.5682 62.1132 54.9127C62.5043 54.4154 62.9291 53.9733 62.9887 53.3915L62.9917 53.3624ZM94.4202 50.8604C94.4707 50.5902 94.1147 50.2924 93.9313 50.0898C93.7235 49.8764 93.4959 49.5924 93.172 49.6569C92.8969 49.7245 91.7094 49.5901 91.8805 49.8971C92.0822 50.178 92.9917 50.8895 93.2911 51.043C93.6105 51.2027 94.2782 51.261 94.4141 50.8834L94.4202 50.8604ZM71.1063 54.4446C71.0712 54.3755 71.0131 54.3678 70.9581 54.3264C70.8679 54.2588 70.7167 54.2573 70.6861 54.3801C70.7152 54.5428 70.978 54.5551 71.1017 54.4599L71.1063 54.4446Z" fill="#1B1B1B"/>
</g>
</g>
</svg>
