<?xml version="1.0" encoding="UTF-8"?>
<svg id="Capa_1" xmlns="http://www.w3.org/2000/svg" version="1.1" viewBox="0 0 57 86">
  <!-- Generator: Adobe Illustrator 29.0.1, SVG Export Plug-In . SVG Version: 2.1.0 Build 192)  -->
  <defs>
    <style>
      .st0 {
        fill: #fffeeb;
      }
    </style>
  </defs>
  <g id="Logo_minimal">
    <path id="Logo" class="st0" d="M24.7,29.8c1-6.9,2.1-13.8,4.5-20.5.4-1.2.8-2.6,1-3.9.1-1,.4-3.1-.6-3.5-.6-.1-1.3.3-1.8.7-5.4,3.9-10.4,8.3-14.3,13.4C7.2,24.4,2.8,34.3,2.1,44.6c-.7,13.6,3.5,27.4,11.4,38.8.2.2.3.4.5.6.4.4,1.3.7,1,1.4-1,1.4-2.6-.4-3.3-1.2-2.3-2.7-4.1-6.8-5.6-10.1-1.1-2.2-2-4.5-2.8-6.8C-3.5,48.2.3,27.7,14.5,12.3,18.4,8,22.7,3.7,27.8.7c1.7-.7,4.3-.7,4.3,1.6.1,1.6,0,3.1-.3,4.6-1.6,7.9-4.7,15.7-4.8,23.8,0,.8.3,1.1,1,.7,1.2-.7,2.2-1.6,3.1-2.6,1.1-1.2,2-2.5,3-3.7,2.7-3.1,5.5-6,8.6-8.6,2.8-2.6,6.8-5.2,10.5-6.2,2-.5,3.3.2,3,2-.2,1-.6,1.9-1,2.9-.6,1.4-1.4,2.8-2.1,4.2-1.1,2-2.1,4-3,6.1-2.5,5.3-3.9,11-5.6,16.5,0-4.9,1.7-10.1,3.1-15,1.9-4.9,5-9.3,6.6-14.3.7-2.7-6.5,1.9-7.1,2.4-1.2.9-2.3,1.8-3.4,2.8-3.7,3.1-6.8,6.7-10,10.3-1.8,1.8-6.8,8.5-8.6,4.1-.3-.7-.5-1.6-.4-2.3h0s0,0,0,0Z"/>
  </g>
</svg>