<svg width="57" height="86" viewBox="0 0 57 86" fill="none" xmlns="http://www.w3.org/2000/svg">
<g id="Logo minimal">
<path id="Logo" d="M24.7373 29.788C25.785 22.908 26.8697 15.9413 29.2212 9.3194C29.6092 8.123 30.0139 6.68874 30.2214 5.37459C30.3533 4.35182 30.6428 2.28605 29.6579 1.90549C29.0419 1.76753 28.3976 2.22421 27.8751 2.56791C22.4999 6.43066 17.523 10.8464 13.5784 15.9936C7.16451 24.4089 2.82926 34.331 2.08388 44.6479C1.41534 58.246 5.60971 72.0404 13.4926 83.4752C13.6488 83.681 13.8153 83.8831 14.01 84.0592C14.416 84.4992 15.3599 84.8025 15.0538 85.4744C14.0279 86.8801 12.4667 85.1128 11.7201 84.2827C9.42243 81.6045 7.65631 77.4468 6.07718 74.2061C4.94374 72.019 4.04595 69.7201 3.24678 67.3951C-3.50392 48.2478 0.292144 27.6936 14.4506 12.2593C18.3747 7.9565 22.6549 3.72388 27.8124 0.691239C29.5298 0.0193009 32.1117 -0.0270805 32.1002 2.25751C32.2027 3.81308 32.0541 5.3627 31.7852 6.89567C30.1958 14.7532 27.0388 22.6 26.9773 30.6466C26.9415 31.4684 27.2437 31.7836 28.0109 31.3197C29.2032 30.6359 30.2035 29.7225 31.1089 28.7307C32.195 27.5462 33.1325 26.2213 34.1532 25.0047C36.8069 21.9495 39.6629 19.0405 42.7661 16.3587C45.5504 13.7875 49.5834 11.1378 53.2936 10.1471C55.2468 9.65002 56.548 10.3327 56.279 12.1558C56.1241 13.1584 55.6681 14.0967 55.2749 15.0327C54.6384 16.461 53.8943 17.8524 53.1541 19.2403C52.0565 21.2276 51.0985 23.2589 50.1943 25.3211C47.6764 30.5895 46.2509 36.3658 44.5565 41.7818C44.5706 36.8463 46.2112 31.6432 47.6918 26.8207C49.5885 21.9376 52.6494 17.5135 54.2491 12.5221C54.9957 9.85458 47.7225 14.4023 47.1129 14.9316C45.9461 15.8116 44.8447 16.7702 43.7433 17.7192C40.0343 20.8339 36.9273 24.4374 33.7178 27.9755C31.9568 29.7344 26.9555 36.518 25.1151 32.1035C24.8359 31.3923 24.5862 30.5229 24.7322 29.8094L24.7348 29.7891L24.7373 29.788Z" fill="#1B1B1B"/>
</g>
</svg>
